<?xml version="1.0" standalone="no"?>
<!DOCTYPE svg PUBLIC "-//W3C//DTD SVG 20010904//EN"
 "http://www.w3.org/TR/2001/REC-SVG-20010904/DTD/svg10.dtd">
<svg version="1.0" xmlns="http://www.w3.org/2000/svg"
 width="920.000000pt" height="920.000000pt" viewBox="0 0 920.000000 920.000000"
 preserveAspectRatio="xMidYMid meet">

<g transform="translate(0.000000,920.000000) scale(0.100000,-0.100000)"
fill="#000000" stroke="none">
<path d="M4240 8569 c-91 -5 -338 -12 -550 -16 -417 -9 -414 -8 -469 -66 -13
-14 -47 -38 -77 -52 -58 -28 -107 -80 -126 -132 -8 -23 -22 -36 -44 -43 -44
-15 -121 -75 -129 -101 -13 -40 8 -42 133 -10 122 31 177 38 186 22 8 -12 -23
-37 -142 -116 -116 -76 -129 -97 -80 -125 32 -18 41 -15 223 68 143 65 207 79
280 63 65 -15 91 -35 99 -78 5 -29 -2 -41 -59 -109 -71 -83 -80 -104 -72 -166
11 -84 58 -88 101 -8 39 71 104 134 162 155 69 26 86 44 130 143 44 101 73
147 105 170 51 36 378 26 635 -18 69 -12 209 -23 370 -30 539 -23 553 -28 610
-242 39 -144 69 -193 181 -287 67 -57 197 -202 280 -313 l53 -69 -108 -90
c-162 -137 -365 -324 -423 -391 -29 -33 -115 -151 -192 -262 -77 -110 -179
-252 -226 -314 -97 -129 -95 -125 -111 -170 -23 -61 -112 -137 -233 -197 -62
-30 -157 -89 -212 -130 -71 -53 -109 -75 -130 -75 -31 -1 -58 -13 -91 -43 -10
-9 -38 -33 -62 -53 -23 -20 -57 -55 -74 -77 -29 -36 -30 -40 -14 -49 16 -9 15
-13 -12 -42 -97 -103 -253 -403 -292 -561 -12 -52 -100 -157 -289 -350 -234
-237 -250 -263 -529 -855 -68 -146 -75 -153 -262 -270 -514 -321 -631 -426
-699 -632 l-26 -77 -206 -208 c-396 -399 -570 -559 -634 -583 -14 -5 -47 -1
-91 11 -90 25 -278 58 -375 66 -70 5 -77 4 -82 -13 -27 -91 -79 -426 -87 -556
-6 -114 -16 -184 -38 -273 -44 -175 -56 -271 -49 -409 7 -176 51 -285 127
-316 28 -11 34 -11 58 6 38 28 76 111 112 243 31 114 31 115 99 185 142 148
226 251 281 346 108 185 439 496 1100 1035 409 334 514 407 758 529 107 53
219 112 249 132 58 37 72 35 73 -11 0 -11 16 -87 35 -170 79 -337 199 -627
304 -735 63 -64 88 -73 180 -68 45 2 57 7 74 30 19 26 20 33 9 105 -7 43 -15
137 -18 208 l-6 130 28 40 c24 35 29 52 34 135 3 61 12 106 22 126 10 18 53
62 98 99 44 37 80 73 80 80 0 8 -10 21 -22 29 -12 9 -18 19 -14 23 13 14 440
19 1031 14 724 -7 763 -6 877 20 51 11 148 24 215 29 98 6 132 12 165 30 24
13 69 36 100 52 145 73 210 246 162 432 -44 169 -298 557 -607 926 -116 139
-302 330 -348 357 -32 19 -33 21 -46 131 -11 88 -25 74 189 185 173 89 246
136 337 216 74 65 92 76 228 131 109 45 132 61 311 224 161 146 194 170 221
161 11 -3 100 -90 198 -193 339 -358 453 -457 574 -501 55 -20 76 -37 149
-111 97 -100 121 -114 214 -131 93 -16 166 -5 199 29 62 66 109 205 166 489
39 193 52 278 107 703 22 171 33 228 71 344 l45 139 -12 76 c-9 54 -10 139 -5
298 7 216 6 222 -14 242 -12 12 -29 21 -39 21 -36 0 -42 -20 -42 -147 0 -68
-4 -123 -9 -123 -23 0 -50 129 -52 245 0 80 -17 140 -39 140 -21 0 -27 -41
-29 -185 -1 -69 -4 -142 -8 -163 l-6 -39 -18 39 c-15 32 -18 64 -19 195 0 181
-6 208 -48 208 -62 0 -79 -52 -62 -190 20 -171 24 -250 12 -250 -15 0 -39 83
-52 183 -15 110 -63 217 -87 194 -9 -9 -4 -226 6 -302 5 -37 15 -73 22 -81 27
-32 34 -215 8 -198 -5 2 -18 36 -29 74 -19 65 -23 70 -54 76 -140 26 -94 -175
88 -385 73 -85 80 -107 73 -260 -6 -153 -14 -181 -123 -423 -46 -104 -89 -206
-95 -228 l-12 -41 -60 61 c-66 67 -203 163 -309 216 -37 19 -72 43 -78 54 -6
12 -18 60 -26 108 -29 171 -104 278 -319 452 -97 79 -144 142 -125 165 7 8 28
15 46 15 29 0 38 -6 60 -42 15 -23 32 -55 39 -72 39 -93 96 -112 162 -53 21
18 60 41 87 51 27 10 78 39 115 64 57 40 75 47 134 53 51 5 74 12 92 29 26 24
45 76 45 121 0 34 41 78 80 85 44 9 73 50 106 150 26 79 29 103 28 209 0 182
-47 327 -139 432 -86 98 -240 149 -425 140 -120 -5 -191 -27 -263 -82 -63 -48
-80 -80 -147 -281 -32 -97 -68 -186 -78 -197 -20 -20 -20 -20 -69 3 -67 32
-83 48 -83 84 -1 72 -86 203 -215 332 -51 50 -112 103 -137 118 -30 17 -60 49
-94 98 -76 112 -167 202 -310 309 -99 73 -157 126 -233 212 -103 116 -167 171
-214 182 -34 9 -51 30 -44 55 10 38 -14 46 -150 53 -219 11 -1130 15 -1303 6z
m529 -4663 c227 -136 544 -295 679 -340 l63 -21 -148 -51 c-81 -28 -204 -72
-273 -98 -211 -80 -237 -86 -450 -98 -263 -16 -689 -16 -714 -2 -18 11 -18 12
5 24 84 45 303 237 539 474 96 97 179 176 184 176 4 0 56 -29 115 -64z"/>
</g>
</svg>
