<svg xmlns="http://www.w3.org/2000/svg" width="500" height="500" style="width:100%;height:100%;content-visibility:visible"><defs><clipPath id="a"><path d="M0 0h500v500H0z"/></clipPath><clipPath id="c"><path d="M0 0h500v500H0z"/></clipPath><mask id="b"><g display="block"><path fill="red" d="M250 161.6c19.2-34.81 58.04-55.78 96.64-39.33 0 0 52.18 17.66 48.26 79.43-3.91 61.78-82.8 148.33-144.9 181.73m0-221.83c-19.2-34.81-58.04-55.78-96.64-39.33 0 0-52.18 17.66-48.26 79.43 3.91 61.78 82.8 148.33 144.9 181.73"/></g></mask></defs><g clip-path="url(#a)"><g mask="url(#b)" display="block"><g clip-path="url(#c)"><path stroke-linecap="round" stroke-linejoin="round" stroke="#E8E12F" stroke-width="12.04" d="M103.7 243.504l60.09-.191 14.42 28.83 28.82-57.65 14.42 28.82h57.41l14.42 28.83 28.82-57.65 14.42 28.82 58.78-.061" fill="none" display="block"/></g></g><path stroke-linecap="round" stroke-linejoin="round" stroke="#C61F15" stroke-width="12.04" d="M250 161.6c19.201-34.813 58.038-55.777 96.644-39.328 0 0 52.18 17.653 48.261 79.428-3.919 61.775-82.802 148.332-144.905 181.733m0-221.833c-19.201-34.813-58.038-55.777-96.644-39.328 0 0-52.18 17.653-48.261 79.428 3.919 61.775 82.802 148.332 144.905 181.733" fill="none" display="block"/></g></svg>