<svg xmlns="http://www.w3.org/2000/svg" width="500" height="500" style="width:100%;height:100%;content-visibility:visible"><defs><clipPath id="a"><path d="M0 0h500v500H0z"/></clipPath></defs><g display="block" clip-path="url(#a)"><path stroke-linecap="round" stroke-linejoin="round" stroke="#E8E12F" stroke-width="12.04" d="M107.159 190.904c0 46.955 75.621 44.822 71.233 89.645m193.616-52.739c23.567 49.907-71.752 71.702-71.752 71.702" fill="none"/><path stroke-linecap="round" stroke-linejoin="round" stroke="#C61F15" stroke-width="12.04" d="M107.159 190.904s-25.138 66.761-14.773 111.848c10.552 45.9 114.473 19.58 148.779 19.047 22.181-.344 65.82 10.333 104.545 3.493 26.674-4.711 51.016-17.733 64.409-48.392v-14.709c0-18.974-15.382-34.356-34.356-34.356h-.687a199.39 199.39 0 01-86.112-19.554l-58.212-27.873c-9.487-4.543-20.801-1.855-27.349 6.377-14.911 18.746-47.128 44.003-96.244 4.119zm302.96 85.996s-3.345 4.192-12.78 9.005c-21.897 11.171-76.597 25.687-198.412-1.091-84.477-18.57-108.944-12.166-108.944-12.166m224.509-54.217l-24.269 15.3m-3.02-26.294l-24.269 15.3m-2.044-27.902l-24.269 15.3M91.342 297.43c31.996-3.296 58.728 8.839 80.536 8.839" fill="none"/></g></svg>