<svg xmlns="http://www.w3.org/2000/svg" width="500" height="500" style="width:100%;height:100%;content-visibility:visible"><defs><clipPath id="a"><path d="M0 0h500v500H0z"/></clipPath></defs><g display="block" clip-path="url(#a)"><path stroke-linecap="round" stroke-linejoin="round" stroke="#C61F15" stroke-width="12.6" d="M145.822 130.542h-42.021s-12.196 105.885 84.99 121.803M363.322 79.34v19.025h-8.655s19.91 175.208-103.864 175.208S146.939 98.365 146.939 98.365h-8.655V79.34h225.038zm-7.538 51.202h42.021s12.196 105.885-84.99 121.803m-45.364 20.205l.027 15.208h-36.336l-.026-15.208m-17.48 62.496s0 0 0 0c0-13.058 10.585-23.643 23.643-23.643h24.058c13.058 0 23.643 10.585 23.643 23.643 0 0 0 0 0 0m39.158 81.546H175.477v-81.546h148.661v81.546zm-74.331-128.834v23.645" fill="none"/><path stroke-linecap="round" stroke-linejoin="round" stroke="#E8E12F" stroke-width="12.6" d="M285.501 364.58h-71.773m54.773 23.5h-37.773m20.447-274.891L236.906 142.1l-31.905 4.636 23.087 22.505-5.45 31.777 28.537-15.003 28.537 15.003-5.45-31.777 23.087-22.505-31.905-4.636-14.269-28.911z" fill="none"/></g></svg>