<?xml version="1.0" standalone="no"?>
<!DOCTYPE svg PUBLIC "-//W3C//DTD SVG 20010904//EN"
 "http://www.w3.org/TR/2001/REC-SVG-20010904/DTD/svg10.dtd">
<svg version="1.0" xmlns="http://www.w3.org/2000/svg"
 width="300.000000pt" height="300.000000pt" viewBox="0 0 300.000000 300.000000"
 preserveAspectRatio="xMidYMid meet">

<g transform="translate(0.000000,300.000000) scale(0.100000,-0.100000)"
fill="#fff" stroke="none">
<path d="M431 1793 c1 -526 4 -742 11 -704 l10 53 61 -6 c58 -6 64 -5 95 23
17 16 32 36 32 45 0 9 8 16 19 16 18 0 91 71 91 89 0 20 54 73 119 116 59 40
71 53 100 114 18 39 49 88 67 110 l34 39 0 346 c0 190 -4 346 -8 346 -4 0 -13
-5 -20 -12 -20 -20 -26 0 -8 26 9 14 16 30 16 36 0 13 -39 13 -79 -1 -41 -15
-50 -5 -20 21 l24 20 -35 -6 -35 -6 50 46 49 46 -287 0 -287 0 1 -757z m425
165 l-1 -373 -107 -3 -108 -3 0 376 0 375 109 0 109 0 -2 -372z"/>
<path d="M1610 2497 c0 -52 1 -54 70 -123 39 -38 78 -85 86 -104 l15 -35 20
24 c17 20 19 40 19 157 l0 134 -105 0 -105 0 0 -53z"/>
<path d="M1930 2457 l0 -93 30 -11 c22 -8 36 -25 51 -57 21 -48 33 -57 43 -30
8 20 25 9 37 -24 8 -21 12 -24 20 -12 15 24 40 -15 149 -232 l100 -198 0 -485
0 -485 105 0 105 0 0 860 0 860 -105 0 -104 0 -3 -152 -3 -153 -78 153 -77
152 -135 0 -135 0 0 -93z"/>
<path d="M1180 2173 c0 -239 2 -294 13 -282 6 9 44 34 83 57 111 64 114 72
114 308 0 147 -3 196 -12 198 -7 3 -55 7 -105 10 l-93 6 0 -297z"/>
<path d="M2010 2194 c0 -12 7 -27 15 -34 20 -17 21 9 0 36 -14 19 -14 19 -15
-2z"/>
<path d="M2130 2168 c0 -15 5 -30 10 -33 13 -8 13 25 0 45 -8 12 -10 9 -10
-12z"/>
<path d="M1974 2145 c-4 -16 -13 -25 -25 -25 -17 0 -19 -8 -19 -84 l0 -84 35
-26 35 -27 25 53 c32 69 32 115 0 158 -14 19 -25 40 -25 47 0 23 -19 14 -26
-12z"/>
<path d="M2130 2098 c-1 -41 -54 -308 -65 -325 -20 -30 -56 -30 -93 2 -17 14
-33 25 -36 25 -3 0 -5 -217 -4 -482 l3 -483 103 -3 102 -3 0 636 c0 349 -2
635 -5 635 -3 0 -5 -1 -5 -2z"/>
<path d="M1734 1919 c-16 -17 -50 -42 -76 -56 -27 -15 -48 -31 -49 -37 0 -6 0
-54 1 -106 2 -87 4 -97 30 -130 42 -53 80 -129 80 -161 0 -33 -50 -79 -85 -79
l-24 0 -3 -147 -3 -148 -107 -3 -108 -3 0 146 0 146 -102 -3 -103 -3 -3 -252
-2 -253 320 0 320 0 0 538 0 539 -23 21 c-13 12 -26 22 -28 22 -3 0 -18 -14
-35 -31z"/>
<path d="M1231 1532 c-33 -31 -51 -56 -51 -71 0 -24 1 -24 80 -17 108 9 130
18 130 55 0 24 -8 34 -46 55 -26 14 -50 26 -54 26 -4 0 -31 -22 -59 -48z"/>
<path d="M820 1223 c-19 -16 -52 -44 -73 -64 l-39 -35 73 -145 74 -144 103 -3
c63 -2 102 1 102 7 0 12 -187 392 -199 404 -4 4 -22 -5 -41 -20z"/>
<path d="M585 1008 c-22 -28 -54 -67 -71 -87 -17 -20 -34 -48 -38 -63 l-6 -28
85 0 85 0 0 115 c0 63 -3 115 -7 115 -5 -1 -26 -24 -48 -52z"/>
<path d="M1487 698 c-34 -57 -127 -225 -127 -231 0 -16 50 -5 60 13 9 17 21
20 78 20 55 0 71 -4 85 -20 16 -19 67 -28 67 -12 0 4 -6 16 -14 27 -24 35
-116 198 -116 206 0 19 -20 18 -33 -3z m38 -118 l16 -30 -36 0 c-37 0 -42 9
-23 40 17 27 25 25 43 -10z"/>
<path d="M520 703 c-69 -5 -90 -20 -90 -62 0 -20 7 -47 16 -59 13 -20 24 -22
95 -22 74 0 79 -1 79 -21 0 -21 -3 -22 -95 -16 -101 6 -110 1 -81 -38 12 -16
29 -20 95 -23 106 -5 131 9 131 73 0 64 -16 75 -111 75 -74 0 -79 1 -79 22 0
20 2 21 100 15 l100 -6 -15 28 c-13 26 -55 45 -89 39 -6 -1 -31 -3 -56 -5z"/>
<path d="M905 698 c-3 -8 -4 -63 -3 -124 3 -109 3 -109 28 -109 24 0 25 3 28
74 l3 74 33 -32 33 -32 34 33 34 33 3 -77 c3 -76 4 -78 28 -78 l25 0 -3 122
c-2 83 -7 123 -15 125 -7 3 -32 -14 -56 -36 -24 -23 -49 -41 -55 -41 -5 0 -23
15 -40 34 -34 39 -69 54 -77 34z"/>
<path d="M1855 698 c-3 -8 -4 -63 -3 -123 3 -110 3 -110 28 -110 23 0 25 4 28
48 4 62 23 62 87 -3 40 -41 55 -50 84 -50 l35 0 -42 43 c-47 48 -51 57 -23 57
43 0 67 84 37 125 -12 17 -29 20 -120 23 -80 2 -108 -1 -111 -10z m188 -54 c3
-3 3 -12 0 -20 -4 -10 -23 -14 -69 -14 -57 0 -64 2 -64 20 0 18 7 20 63 20 35
0 66 -3 70 -6z"/>
<path d="M2333 694 c-12 -31 6 -47 47 -41 49 6 53 -4 48 -111 l-3 -77 28 -3
27 -3 0 95 0 96 45 0 c42 0 45 2 45 28 l0 27 -116 1 c-89 1 -117 -2 -121 -12z"/>
</g>
</svg>
